<svg width="33" height="32" viewBox="0 0 33 32" fill="none" xmlns="http://www.w3.org/2000/svg">
    <circle cx="16.4615" cy="15.9999" r="14.6667" fill="#DAF3FF"/>
    <path d="M12.4562 14.6999H6.45622C4.98288 14.6999 3.78955 13.5066 3.78955 12.0332V5.99723C3.78955 4.5239 4.98288 3.33057 6.45622 3.33057H12.4562C13.9296 3.33057 15.1229 4.5239 15.1229 5.99723V12.0332C15.1229 13.5052 13.9296 14.6999 12.4562 14.6999Z" fill="url(#paint0_linear)"/>
    <path d="M26.4562 14.6999H20.4562C18.9829 14.6999 17.7896 13.5066 17.7896 12.0332V5.99723C17.7896 4.5239 18.9829 3.33057 20.4562 3.33057H26.4562C27.9296 3.33057 29.1229 4.5239 29.1229 5.99723V12.0332C29.1229 13.5052 27.9296 14.6999 26.4562 14.6999Z" fill="#6A52EB"/>
    <path d="M12.4562 28.664H6.45622C4.98288 28.664 3.78955 27.4707 3.78955 25.9973V19.9613C3.78955 18.488 4.98288 17.2947 6.45622 17.2947H12.4562C13.9296 17.2947 15.1229 18.488 15.1229 19.9613V25.9973C15.1229 27.4707 13.9296 28.664 12.4562 28.664Z" fill="url(#paint1_linear)"/>
    <path d="M26.4562 28.664H20.4562C18.9829 28.664 17.7896 27.4707 17.7896 25.9973V19.9613C17.7896 18.488 18.9829 17.2947 20.4562 17.2947H26.4562C27.9296 17.2947 29.1229 18.488 29.1229 19.9613V25.9973C29.1229 27.4707 27.9296 28.664 26.4562 28.664Z" fill="url(#paint2_linear)"/>
    <defs>
        <linearGradient id="paint0_linear" x1="3.84518" y1="3.5119" x2="3.84518" y2="14.7707" gradientUnits="userSpaceOnUse">
            <stop stop-color="#A7E3FF"/>
            <stop offset="0.9974" stop-color="#0095DA"/>
        </linearGradient>
        <linearGradient id="paint1_linear" x1="3.70469" y1="17.2949" x2="3.70469" y2="28.8356" gradientUnits="userSpaceOnUse">
            <stop stop-color="#F0D25A"/>
            <stop offset="0.9993" stop-color="#F09E19"/>
        </linearGradient>
        <linearGradient id="paint2_linear" x1="17.8036" y1="17.648" x2="17.8036" y2="28.9903" gradientUnits="userSpaceOnUse">
            <stop offset="2.50967e-07" stop-color="#F79A9D"/>
            <stop offset="0.9971" stop-color="#EF3B42"/>
        </linearGradient>
    </defs>
</svg>
