<svg width="332" height="377" viewBox="0 0 332 377" fill="none" xmlns="http://www.w3.org/2000/svg">
<path d="M140.196 70.3665C140.196 70.3665 58.8639 83.1172 65.0314 199.238C65.0538 199.668 55.6275 205.939 54.8892 206.609C48.3162 212.565 42.8015 220.193 40.3899 229.117C31.8028 260.893 62.5038 293.634 87.3308 302.325C96.6041 305.57 106.406 307.146 116.227 307.433C180.073 309.295 264.601 268.637 268.942 189.233C269.098 186.384 269.136 183.532 269.063 180.686C268.678 165.609 265.047 150.926 259.573 137.292C259.576 137.293 224.043 48.9846 140.196 70.3665Z" fill="#643D19"/>
<g style="mix-blend-mode:multiply" opacity="0.5">
<path d="M62.9723 200.464C63.8533 202.626 64.7329 205.389 64.9788 206.97C66.028 213.748 63.7137 220.747 59.6929 225.779C55.8753 230.557 50.4223 233.654 45.1418 234.823C43.3592 235.217 41.2006 235.42 39.3127 235.483C41.2956 215.853 57.2472 204.076 62.9723 200.464Z" fill="#FF5C3C"/>
</g>
<g style="mix-blend-mode:multiply" opacity="0.5">
<path d="M177.62 252.055C162.512 248.798 153.131 232.849 156.667 216.433C160.204 200.016 175.318 189.349 190.426 192.606C205.534 195.863 214.915 211.812 211.378 228.228C207.842 244.645 192.728 255.313 177.62 252.055Z" fill="#FF5C3C"/>
</g>
<path opacity="0.3" d="M103.658 206.136C103.658 206.136 90.7564 193.836 80.7683 205.4Z" fill="#1D0C00"/>
<path d="M223.956 267.422C266.907 288.99 305.886 234.91 293.398 204.51C285.432 185.119 262.209 183.61 248.753 201.322C240.812 211.775 234.386 225.137 230.738 237.92" fill="#643D19"/>
<path opacity="0.3" d="M259.329 219.163C253.803 224.796 249.362 233.151 243.902 237.812C244.911 230.013 246.521 221.685 250.301 214.657C254.14 207.519 261.121 201.639 268.23 202.124C277.039 202.726 284.293 213.006 285.226 222.326C284.669 216.749 273.47 212.974 269.196 213.502C262.504 226.141 259.914 251.051 259.914 251.051C254.337 236.949 256.594 225.857 259.329 219.163Z" fill="#1D0C00"/>
<mask id="mask0_101_133" style="mask-type:alpha" maskUnits="userSpaceOnUse" x="0" y="88" width="105" height="155">
<path d="M67.271 158.684C71.7284 125.462 88.3197 101.248 104.725 98.2524L32.293 88.3354L0.719917 200.211L39.722 242.049C37.2456 222.215 56.0244 205.893 65.7233 200.211C64.4851 192.03 66.2392 169.118 67.271 158.684Z" fill="#C4C4C4"/>
</mask>
<g mask="url(#mask0_101_133)">
<path d="M46.8667 187.016C50.8158 153.405 81.5431 135.47 96.5671 132.601C93.5467 116.257 87.1271 117.261 74.3199 119.801C29.5729 128.674 22.3292 167.898 22.7538 187.885C39.4072 190.327 46.0236 190.242 46.8667 187.016Z" fill="#351700"/>
<ellipse rx="12.0343" ry="6.32031" transform="matrix(1.01788 -0.0478972 0.157337 0.970823 34.9776 187.463)" fill="#451E00"/>
<path opacity="0.6" fill-rule="evenodd" clip-rule="evenodd" d="M46.9898 186.037C51.4136 153.057 81.6896 135.442 96.5671 132.601C97.0202 128.59 85.9072 130.399 73.8261 134.872C42.768 146.371 34.2045 163.633 34.629 183.62C34.6775 183.627 34.7258 183.634 34.774 183.641C34.8827 187.053 35.2062 191.569 35.9721 193.598C42.7373 193.28 47.7764 190.275 47.2272 186.886C47.1807 186.599 47.101 186.316 46.9898 186.037Z" fill="#240F00"/>
<path d="M61.747 197.836C64.7382 163.671 94.5739 144.485 109.321 141.078C105.9 124.63 99.5932 125.861 87.0246 128.86C43.1114 139.338 37.0206 179.297 37.978 199.521C54.4759 201.438 61.002 201.13 61.747 197.836Z" fill="#351700"/>
<ellipse rx="11.938" ry="6.3631" transform="matrix(1.01116 -0.0831476 0.180179 0.971187 50.028 198.685)" fill="#451E00"/>
<path opacity="0.6" fill-rule="evenodd" clip-rule="evenodd" d="M61.8423 196.841C65.3188 163.298 94.7179 144.451 109.321 141.078C109.66 137.002 98.7436 139.204 86.9435 144.137C56.608 156.817 48.6233 174.582 49.5806 194.805C49.6287 194.811 49.6766 194.817 49.7242 194.822C49.9234 198.273 50.3643 202.835 51.1747 204.865C57.8414 204.316 62.7326 201.105 62.0994 197.692C62.0458 197.403 61.9595 197.119 61.8423 196.841Z" fill="#240F00"/>
<path d="M75.3372 222.463C69.1453 187.65 91.8753 160.091 104.707 152.51C97.2015 137.132 91.6542 140.149 80.7435 146.706C42.6225 169.612 47.4515 211.066 53.6559 230.898C69.5155 228.111 75.5092 225.949 75.3372 222.463Z" fill="#351700"/>
<ellipse rx="11.8316" ry="6.40924" transform="matrix(0.927598 -0.37358 0.419819 0.907608 64.6523 226.64)" fill="#451E00"/>
<path opacity="0.6" fill-rule="evenodd" clip-rule="evenodd" d="M75.1643 221.446C69.5878 187.114 92.0005 160.017 104.707 152.51C103.951 148.361 94.369 153.656 84.6816 161.915C59.7772 183.149 57.0122 203.079 63.2166 222.911C63.2628 222.903 63.3088 222.895 63.3546 222.887C64.4466 226.26 66.0555 230.67 67.3431 232.457C73.4044 230.016 77.1134 225.433 75.6273 222.22C75.5015 221.948 75.3464 221.69 75.1643 221.446Z" fill="#240F00"/>
<path opacity="0.5" d="M27.971 157.235C27.8392 156.221 30.6796 150.894 32.1163 148.357L53.3048 156.435L71.4709 174.456C71.084 181.379 69.0017 195.759 63.768 197.896C58.5344 200.034 52.914 199.235 49.6818 198.444C48.3772 196.795 46.1675 183.06 47.6662 170.131C40.2868 169.273 28.1358 158.502 27.971 157.235Z" fill="#220F01"/>
<path d="M44.9752 147.976C50.9106 114.659 82.6474 98.5816 97.815 96.6108C95.7693 80.1161 89.3014 80.7368 76.3662 82.5105C31.1719 88.7078 21.6148 127.432 20.8532 147.409C37.3325 150.837 43.9423 151.145 44.9752 147.976Z" fill="#351700"/>
<ellipse rx="12.0343" ry="6.32038" transform="matrix(1.01894 0.0126966 0.0994829 0.978451 33.0806 147.715)" fill="#451E00"/>
<path opacity="0.6" fill-rule="evenodd" clip-rule="evenodd" d="M45.1561 147.006C51.528 114.346 82.7952 98.5623 97.815 96.6108C98.5052 92.634 87.3044 93.779 74.9794 97.526C43.2941 107.159 33.722 123.881 32.9604 143.858C33.0084 143.868 33.0562 143.878 33.1038 143.888C33.01 147.3 33.0652 151.827 33.7093 153.899C40.4815 153.983 45.69 151.283 45.3427 147.867C45.3133 147.578 45.2505 147.29 45.1561 147.006Z" fill="#240F00"/>
<path d="M59.1881 159.661C64.2002 125.734 95.1212 108.355 110.044 105.832C107.605 89.2088 101.236 90.0627 88.5118 92.3093C44.0546 100.159 35.6048 139.685 35.3611 159.93C51.7162 162.824 58.2491 162.905 59.1881 159.661Z" fill="#351700"/>
<ellipse rx="11.9378" ry="6.36321" transform="matrix(1.01432 -0.0228915 0.122262 0.980167 47.4395 159.812)" fill="#451E00"/>
<path opacity="0.6" fill-rule="evenodd" clip-rule="evenodd" d="M59.3422 158.673C64.8018 125.397 95.2667 108.331 110.044 105.831C110.625 101.783 99.5965 103.332 87.5248 107.555C56.4907 118.41 47.4666 135.668 47.2228 155.913C47.2705 155.921 47.3179 155.93 47.3652 155.938C47.3593 159.395 47.5289 163.975 48.2175 166.049C54.905 165.898 59.978 162.983 59.5483 159.539C59.5119 159.247 59.4426 158.958 59.3422 158.673Z" fill="#240F00"/>
<path d="M75.0082 185.053C70.8919 149.933 95.2162 123.774 108.475 116.969C101.895 101.172 96.1781 103.854 84.8978 109.75C45.4856 130.35 47.8476 172.018 52.8649 192.184C68.8618 190.345 74.9731 188.543 75.0082 185.053Z" fill="#351700"/>
<ellipse rx="11.8311" ry="6.40957" transform="matrix(0.94816 -0.317794 0.365232 0.930916 64.0944 188.587)" fill="#451E00"/>
<path opacity="0.6" fill-rule="evenodd" clip-rule="evenodd" d="M74.8958 184.027C71.3653 149.424 95.3454 123.707 108.474 116.969C107.967 112.783 98.087 117.498 87.9269 125.167C61.8071 144.883 57.8651 164.613 62.8824 184.779C62.9289 184.774 62.9754 184.768 63.0216 184.763C63.9116 188.196 65.2561 192.693 66.4354 194.554C72.6308 192.477 76.6051 188.123 75.3122 184.827C75.2027 184.548 75.0632 184.281 74.8958 184.027Z" fill="#240F00"/>
<path opacity="0.5" d="M38.4843 101.041L42.1987 97.3226V94.5334L59.533 99.8018L84.9153 134.511L68.5097 155.895C57.3662 157.878 48.1832 154.035 44.9846 151.866L52.7231 123.045C44.9846 121.185 44.056 113.438 43.7464 112.198C43.4988 111.206 45.0878 107.446 45.9132 105.69C44.1798 104.946 40.2383 102.281 38.4843 101.041Z" fill="#220F01"/>
</g>
<path d="M61.523 103.427C82.3004 76.7326 117.863 77.3393 132.197 82.682C138.075 67.1373 132.065 64.6647 119.798 60.1907C76.9369 44.5589 50.436 74.3445 40.4519 91.6577C53.4296 102.388 59.1321 105.748 61.523 103.427Z" fill="#351700"/>
<ellipse rx="12.0371" ry="6.31916" transform="matrix(0.895085 0.487126 -0.3681 0.912056 51.1244 97.6397)" fill="#451E00"/>
<path opacity="0.6" fill-rule="evenodd" clip-rule="evenodd" d="M62.1352 102.654C82.9922 76.7448 118.003 77.3912 132.197 82.6818C134.661 79.487 124.221 75.2672 111.573 72.8234C79.0595 66.5411 62.7999 76.8592 52.8158 94.1724C52.8536 94.2037 52.8912 94.2348 52.9286 94.2659C51.2555 97.2398 49.1943 101.27 48.7984 103.403C54.7489 106.641 60.6141 106.686 61.8987 103.503C62.0075 103.234 62.0861 102.95 62.1352 102.654Z" fill="#240F00"/>
<path d="M68.6472 120.402C88.8921 92.7369 124.34 91.811 138.715 96.5502C144.305 80.7086 138.274 78.4884 125.973 74.5311C82.994 60.7049 57.0989 91.7168 47.4478 109.509C60.5644 119.709 66.3047 122.833 68.6472 120.402Z" fill="#351700"/>
<ellipse rx="11.9403" ry="6.36218" transform="matrix(0.907611 0.453514 -0.348738 0.924186 58.1858 115.047)" fill="#451E00"/>
<path opacity="0.6" fill-rule="evenodd" clip-rule="evenodd" d="M69.2441 119.601C89.5818 92.7195 124.481 91.8573 138.716 96.5503C141.116 93.2402 130.64 89.459 117.995 87.5541C85.4874 82.657 69.4626 93.7053 59.8116 111.498C59.8498 111.527 59.8878 111.557 59.9256 111.586C58.3096 114.641 56.3249 118.771 55.9672 120.927C61.9524 123.918 67.7977 123.71 69.0231 120.463C69.1268 120.188 69.2003 119.9 69.2441 119.601Z" fill="#240F00"/>
<path d="M67.5204 148.515C80.2478 115.53 113.953 103.757 128.851 103.932C130.394 86.8861 124.088 86.5882 111.363 86.5331C66.9036 86.3408 49.5727 124.298 44.6118 144.478C59.6176 150.325 65.8625 151.586 67.5204 148.515Z" fill="#351700"/>
<ellipse rx="11.83" ry="6.41048" transform="matrix(0.98681 0.161883 -0.110813 0.993841 56.2202 146.543)" fill="#451E00"/>
<path opacity="0.6" fill-rule="evenodd" clip-rule="evenodd" d="M67.8988 147.556C80.9035 115.302 114.099 103.759 128.851 103.932C130.353 99.9924 119.417 99.5477 106.857 101.584C74.5662 106.82 61.884 122.429 56.9231 142.609C56.9668 142.626 57.0103 142.643 57.0537 142.66C56.241 146.112 55.3342 150.717 55.51 152.914C61.9574 153.972 67.5021 151.977 67.8944 148.458C67.9276 148.16 67.9286 147.859 67.8988 147.556Z" fill="#240F00"/>
<path d="M283.246 180.696C275.565 143.089 238.848 121.852 221.454 118.041C223.35 99.9559 230.761 101.337 245.598 104.689C297.435 116.403 309.402 160.399 310.81 182.649C292.061 184.69 284.512 184.324 283.246 180.696Z" fill="#351700"/>
<ellipse rx="14.0617" ry="6.81788" transform="matrix(-0.996693 -0.0812575 -0.0810669 0.996709 296.838 181.68)" fill="#451E00"/>
<path opacity="0.6" fill-rule="evenodd" clip-rule="evenodd" d="M283.013 179.601C274.85 142.676 238.678 121.814 221.454 118.041C220.558 113.554 233.394 116.024 247.586 121.501C284.071 135.581 295.464 155.162 296.872 177.412C296.817 177.418 296.763 177.424 296.709 177.43C296.907 181.227 296.966 186.245 296.285 188.475C288.545 187.844 282.518 184.29 282.823 180.537C282.849 180.219 282.913 179.907 283.013 179.601Z" fill="#240F00"/>
<path d="M257.408 198.543C265.925 161.116 241.246 126.594 226.975 115.932C236.162 100.244 242.342 104.566 254.472 113.754C296.851 145.855 289.602 190.872 281.706 211.718C263.789 205.825 257.065 202.371 257.408 198.543Z" fill="#351700"/>
<ellipse rx="14.0656" ry="6.81603" transform="matrix(-0.873978 -0.485965 -0.485089 0.874465 269.382 205.058)" fill="#451E00"/>
<path opacity="0.6" fill-rule="evenodd" clip-rule="evenodd" d="M257.648 197.449C265.445 160.445 241.106 126.49 226.976 115.932C228.01 111.475 238.683 119.031 249.349 129.887C276.769 157.796 279.068 180.34 271.172 201.186C271.12 201.169 271.068 201.152 271.016 201.135C269.632 204.675 267.615 209.269 266.075 211.019C259.286 207.244 255.263 201.515 257.089 198.223C257.243 197.944 257.43 197.686 257.648 197.449Z" fill="#240F00"/>
<path d="M230.934 205.44C240.101 168.167 216.026 133.22 201.943 122.311C211.401 106.786 217.505 111.215 229.473 120.613C271.287 153.447 263.256 198.331 254.999 219.037C237.187 212.832 230.524 209.261 230.934 205.44Z" fill="#351700"/>
<ellipse rx="14.0658" ry="6.81591" transform="matrix(-0.865375 -0.501125 -0.500239 0.865887 242.792 212.163)" fill="#451E00"/>
<path opacity="0.6" fill-rule="evenodd" clip-rule="evenodd" d="M231.193 204.35C239.632 167.488 215.888 133.113 201.943 122.31C203.055 117.872 213.595 125.613 224.07 136.654C251.001 165.036 252.908 187.617 244.65 208.322C244.598 208.304 244.546 208.286 244.495 208.268C243.049 211.783 240.953 216.342 239.383 218.065C232.66 214.172 228.737 208.374 230.62 205.114C230.779 204.838 230.971 204.583 231.193 204.35Z" fill="#240F00"/>
<path d="M207.585 210.39C222.932 175.214 205.125 136.685 193.094 123.543C205.045 109.849 210.311 115.25 220.513 126.544C256.16 166.002 240.643 208.872 228.998 227.876C212.495 218.737 206.534 214.087 207.585 210.39Z" fill="#351700"/>
<ellipse rx="14.0684" ry="6.81463" transform="matrix(-0.767816 -0.64067 -0.639778 0.76856 218.132 219.029)" fill="#451E00"/>
<path opacity="0.6" fill-rule="evenodd" clip-rule="evenodd" d="M208.024 209.36C222.585 174.465 205.008 136.557 193.095 123.543C194.942 119.358 204.018 128.776 212.471 141.435C234.205 173.979 232.259 196.556 220.614 215.56C220.566 215.533 220.518 215.507 220.47 215.48C218.45 218.699 215.612 222.836 213.773 224.267C207.807 219.289 204.923 212.909 207.331 210.016C207.534 209.771 207.767 209.552 208.024 209.36Z" fill="#240F00"/>
<path d="M212.446 196.492C213.436 194.509 214.097 190.708 214.303 189.055C232.566 167.671 271.011 115.483 274.973 117.467C278.935 119.45 290.656 130.999 293.545 134.202L278.687 143.808C280.544 150.316 279.925 161.473 274.973 163.952C271.011 165.936 261.766 166.225 257.639 166.122L256.091 176.039C255.575 177.691 253.491 181.245 249.281 182.237C245.071 183.228 238.034 181.824 235.042 180.997C235.29 183.476 232.875 190.708 231.637 194.013C225.942 196.74 216.47 196.802 212.446 196.492Z" fill="#220F01"/>
<path d="M269.116 128.967C251.631 94.8055 210.567 84.2189 192.789 85.2248C189.765 67.2938 197.275 66.6315 212.465 65.8725C265.54 63.2203 288.868 102.383 296.191 123.438C278.678 130.444 271.309 132.121 269.116 128.967Z" fill="#351700"/>
<ellipse rx="14.0622" ry="6.81764" transform="matrix(-0.981849 0.189663 0.189232 0.981932 282.473 126.26)" fill="#451E00"/>
<path opacity="0.6" fill-rule="evenodd" clip-rule="evenodd" d="M268.598 127.974C250.832 94.6001 210.393 84.2286 192.789 85.2247C190.723 81.1434 203.75 80.0712 218.89 81.5318C257.811 85.2868 274.037 101.086 281.361 122.141C281.31 122.161 281.259 122.181 281.208 122.202C282.418 125.805 283.82 130.623 283.763 132.955C276.137 134.428 269.378 132.624 268.666 128.927C268.605 128.614 268.583 128.296 268.598 127.974Z" fill="#240F00"/>
<path d="M249.013 153.104C247.18 114.762 214.148 88.1422 197.542 81.7082C202.184 64.1271 209.296 66.6289 223.445 72.2184C272.876 91.7473 277.967 137.06 275.952 159.263C257.113 158.403 249.709 156.884 249.013 153.104Z" fill="#351700"/>
<ellipse rx="14.0625" ry="6.8175" transform="matrix(-0.972425 -0.233215 -0.232694 0.97255 262.295 156.161)" fill="#451E00"/>
<path opacity="0.6" fill-rule="evenodd" clip-rule="evenodd" d="M248.951 151.986C246.537 114.245 213.986 88.0794 197.542 81.7081C197.344 77.1367 209.651 81.5465 222.837 89.1363C256.735 108.648 264.996 129.746 262.981 151.95C262.926 151.947 262.872 151.945 262.817 151.942C262.433 155.724 261.722 160.692 260.708 162.792C253.156 160.98 247.744 156.544 248.62 152.882C248.694 152.572 248.805 152.273 248.951 151.986Z" fill="#240F00"/>
<path d="M225.361 166.865C224.195 128.497 191.631 101.305 175.14 94.5821C180.087 77.0847 187.155 79.7101 201.204 85.5455C250.288 105.934 254.59 151.328 252.189 173.493C233.367 172.304 225.991 170.656 225.361 166.865Z" fill="#351700"/>
<ellipse rx="14.0627" ry="6.81742" transform="matrix(-0.968211 -0.250137 -0.249583 0.968353 238.587 170.153)" fill="#451E00"/>
<path opacity="0.6" fill-rule="evenodd" clip-rule="evenodd" d="M225.318 165.746C223.561 127.968 191.47 101.239 175.14 94.5821C175.021 90.0079 187.249 94.6316 200.301 102.45C233.855 122.551 241.748 143.789 239.346 165.954C239.292 165.951 239.237 165.947 239.183 165.944C238.732 169.719 237.936 174.674 236.885 176.755C229.366 174.812 224.031 170.282 224.971 166.636C225.051 166.327 225.167 166.03 225.318 165.746Z" fill="#240F00"/>
<path d="M204.197 177.911C209.546 139.9 182.06 107.573 166.947 98.1482C174.786 81.7441 181.306 85.5315 194.163 93.6676C239.083 122.094 235.634 167.561 229.513 188.998C211.166 184.631 204.176 181.754 204.197 177.911Z" fill="#351700"/>
<ellipse rx="14.0644" ry="6.81657" transform="matrix(-0.911705 -0.410846 -0.410039 0.912068 216.674 183.397)" fill="#451E00"/>
<path opacity="0.6" fill-rule="evenodd" clip-rule="evenodd" d="M204.344 176.8C209.012 139.272 181.913 107.481 166.947 98.1482C167.604 93.62 178.872 100.253 190.411 110.174C220.074 135.68 224.255 157.951 218.134 179.388C218.081 179.375 218.028 179.362 217.974 179.35C216.891 182.993 215.267 187.741 213.879 189.614C206.798 186.423 202.308 181.052 203.852 177.618C203.982 177.328 204.147 177.055 204.344 176.8Z" fill="#240F00"/>
<path d="M248.662 73.7698C246.928 72.7781 241.13 71.084 238.447 70.3608L199.755 136.371C202.974 140.338 204.604 153.106 205.017 158.994C214.303 158.064 223.899 152.176 225.446 149.077C226.685 146.598 218.327 129.14 213.993 122.735C227.304 123.975 233.804 116.227 235.352 112.508C236.59 109.533 233.082 103.624 230.399 99.1821C246.495 93.4798 249.281 79.8646 248.662 73.7698Z" fill="#220F01"/>
<path d="M220.084 91.6878C190.488 67.2858 148.601 73.894 132.684 81.8843C122.797 66.6297 129.426 63.0366 143.067 56.301C190.727 32.7676 227.669 59.4376 242.74 75.8503C229.446 89.2422 223.347 93.7112 220.084 91.6878Z" fill="#351700"/>
<ellipse rx="14.0669" ry="6.81537" transform="matrix(-0.825635 0.564204 0.563296 0.826255 231.269 83.8938)" fill="#451E00"/>
<path opacity="0.6" fill-rule="evenodd" clip-rule="evenodd" d="M219.215 90.983C189.673 67.415 148.446 73.9721 132.684 81.8845C129.169 78.9602 140.7 72.7972 155.174 68.1192C192.385 56.0929 213.543 64.1425 228.615 80.5552C228.576 80.5942 228.537 80.633 228.499 80.6718C231.038 83.498 234.236 87.3626 235.108 89.5251C228.694 93.9084 221.775 94.9405 219.655 91.8305C219.475 91.5672 219.329 91.2838 219.215 90.983Z" fill="#240F00"/>
<path d="M209.241 116.346C182.46 88.8766 140.105 90.9009 123.417 97.1171C115.239 80.8796 122.219 78.027 136.508 72.8111C186.435 54.5877 220.272 85.1089 233.478 103.06C218.812 114.931 212.266 118.712 209.241 116.346Z" fill="#351700"/>
<ellipse rx="14.0653" ry="6.81614" transform="matrix(-0.881947 0.47135 0.470484 0.882409 221.203 109.812)" fill="#451E00"/>
<path opacity="0.6" fill-rule="evenodd" clip-rule="evenodd" d="M208.453 115.551C181.636 88.9165 139.942 90.9616 123.416 97.1172C120.238 93.8287 132.369 88.9532 147.264 85.8732C185.558 77.9553 205.72 88.2532 218.926 106.205C218.883 106.239 218.841 106.274 218.798 106.308C221.017 109.393 223.778 113.582 224.41 115.826C217.559 119.488 210.57 119.763 208.798 116.441C208.648 116.16 208.533 115.862 208.453 115.551Z" fill="#240F00"/>
<path d="M198.826 146.597C180.501 112.88 139.188 103.314 121.441 104.76C117.974 86.9097 125.465 86.0615 140.632 84.9262C193.626 80.9594 217.914 119.532 225.756 140.399C208.422 147.837 201.096 149.696 198.826 146.597Z" fill="#351700"/>
<ellipse rx="14.0624" ry="6.81756" transform="matrix(-0.976847 0.213938 0.213456 0.976953 212.112 143.56)" fill="#451E00"/>
<path opacity="0.6" fill-rule="evenodd" clip-rule="evenodd" d="M198.283 145.618C179.698 112.694 139.015 103.328 121.441 104.76C119.274 100.731 132.271 99.3366 147.442 100.422C186.444 103.211 203.056 118.603 210.898 139.47C210.847 139.491 210.797 139.513 210.747 139.535C212.046 143.107 213.567 147.889 213.567 150.221C205.98 151.882 199.178 150.247 198.375 146.569C198.307 146.257 198.277 145.94 198.283 145.618Z" fill="#240F00"/>
<path d="M84.7872 227.602C82.9227 228.675 69.8861 212.266 61.2062 217.258C58.276 218.943 56.0403 221.817 54.3616 224.924C50.6728 231.756 49.4105 240.056 50.8965 247.713C52.9996 258.54 60.2882 267.404 68.8615 273.279C91.9317 289.084 110.233 286.097 134.856 276.947C154.237 269.747 180.645 254.925 175.174 228.183C165.544 181.108 84.8115 227.589 84.7872 227.602Z" fill="#873C41"/>
<path d="M151.578 224.593C145.308 228.494 137.674 228.896 130.828 227.34C129.518 227.041 128.466 228.143 128.14 229.41C124.797 242.428 105.843 249.223 96.3366 240.876C95.5992 240.227 94.2905 240.074 93.5176 240.809C88.3876 245.687 80.1681 247.011 74.1314 243.71C65.6077 239.05 65.6494 225.955 67.9713 216.836C75.4839 219.135 83.3705 228.417 84.7875 227.599C84.8064 227.587 134.366 199.063 160.458 209.353C159.905 215.675 157.009 221.213 151.578 224.593Z" fill="white"/>
<path d="M80.4924 275.231C94.0491 262.762 110.717 255.798 127.618 250.856C142.074 246.629 158.35 243.889 172.982 248.084C166.201 262.67 148.754 271.78 134.856 276.945C113.317 284.948 96.6145 288.235 77.329 278.355C78.3797 277.311 79.404 276.233 80.4924 275.231Z" fill="#EE7E8B"/>
<path d="M123.156 186.588C123.17 193.949 127.007 199.923 134.974 198.699C140.709 197.16 144.527 193.108 144.512 185.389C144.496 177.301 139.796 172.052 134.923 172.043C128.409 172.03 123.142 179.227 123.156 186.588Z" fill="#2A1200"/>
<path d="M68.8424 186.455C68.852 191.389 71.0804 196.688 76.7831 196.079C81.5688 195.568 82.7906 189.271 82.7846 186.172C82.7741 180.75 80.0636 175.628 76.1096 175.621C71.8571 175.613 68.8328 181.521 68.8424 186.455Z" fill="#2A1200"/>
<path d="M119.589 151.707C127.271 147.894 136.866 148.249 144.57 152.597C147.054 153.998 148.657 157.349 147.384 160.19C146.209 162.817 143.11 164.467 140.451 162.963C139.653 162.513 138.84 162.103 138.002 161.75C137.741 161.64 137.071 161.508 136.811 161.307C136.689 161.272 136.57 161.235 136.447 161.203C135.689 160.998 134.923 160.832 134.152 160.706C133.71 160.634 133.269 160.577 132.826 160.53C132.687 160.516 132.547 160.505 132.406 160.494C132.044 160.54 131.592 160.475 131.252 160.486C130.809 160.5 130.369 160.528 129.927 160.57C129.156 160.642 128.39 160.754 127.633 160.907C127.527 160.928 127.423 160.951 127.317 160.975C126.922 161.099 126.524 161.214 126.132 161.352C125.298 161.648 124.486 162.002 123.69 162.395C121.208 163.628 117.707 161.886 116.759 159.078C115.72 155.986 116.93 153.028 119.589 151.707Z" fill="#351700"/>
<path d="M66.05 154.387C70.6431 151.888 75.9122 151.326 80.655 152.699C81.9349 153.07 83.1031 154.188 83.6509 155.424C84.1911 156.641 84.3011 158.385 83.7688 159.709C83.2155 161.083 82.2708 162.39 80.9393 163.042C79.5894 163.704 78.2094 163.874 76.8189 163.474C76.5913 163.407 76.358 163.369 76.1261 163.314C75.4046 163.232 74.6796 163.211 73.9477 163.242C73.0684 163.375 72.2023 163.59 71.3474 163.884C71.0496 164.022 70.7449 164.144 70.4534 164.302C69.1953 164.985 67.6213 165.148 66.3331 164.733C65.0999 164.335 63.835 163.272 63.3384 162.006C62.8232 160.695 62.6509 159.137 63.2205 157.721C63.7875 156.309 64.7191 155.111 66.05 154.387Z" fill="#351700"/>
<path fill-rule="evenodd" clip-rule="evenodd" d="M35.0988 180.14L65.442 179.047L65.7512 172.539L34.9606 173.943L35.0988 180.14Z" fill="#896307"/>
<path fill-rule="evenodd" clip-rule="evenodd" d="M143.337 141.381C160.163 144.037 171.851 161.313 168.847 180.424C165.843 199.535 149.423 212.374 132.596 209.718C115.77 207.062 104.082 189.786 107.086 170.675C110.09 151.563 126.51 138.724 143.337 141.381ZM175.434 173.72C175.112 154.725 162.508 138.133 144.299 135.258C123.674 132.002 104.495 147.708 101.035 169.719C101.035 169.724 101.034 169.728 101.033 169.733C100.397 169.476 99.7024 169.229 98.962 169.013C96.711 168.357 93.8766 167.955 90.9258 168.572C90.5489 160.825 88.3009 153.712 84.643 148.095C80.096 141.112 73.249 136.303 65.1081 135.876C56.9796 135.45 49.5527 139.497 44.1002 145.92C38.646 152.346 35.0107 161.296 34.3199 171.236C33.6292 181.177 35.9975 190.461 40.5408 197.439C45.0878 204.422 51.9349 209.23 60.0758 209.657C68.2043 210.083 75.6312 206.037 81.0836 199.613C86.3983 193.352 89.9859 184.694 90.8051 175.058C92.9258 174.189 95.1743 174.363 97.2496 174.968C98.5425 175.345 99.6719 175.866 100.494 176.308C100.35 195.747 113.083 212.912 131.634 215.841C152.259 219.096 171.438 203.391 174.898 181.379C174.968 180.935 175.031 180.491 175.087 180.048L228.547 171.418C238.577 170.028 248.587 170.489 255.98 172.977C263.396 175.472 267.31 184.651 267.428 190.351L273.553 190.203C273.358 180.726 266.49 169.976 257.93 167.096C249.354 164.211 238.316 163.808 227.698 165.284L227.665 165.288L175.434 173.72ZM79.5231 151.514C83.2562 157.247 85.3584 165.156 84.7521 173.881C84.1458 182.605 80.9621 190.257 76.4398 195.585C71.9158 200.915 66.209 203.773 60.411 203.469C54.6254 203.165 49.3902 199.747 45.6608 194.02C41.9276 188.287 39.8255 180.378 40.4318 171.653C41.038 162.929 44.2218 155.276 48.744 149.949C53.2681 144.619 58.9749 141.761 64.7729 142.065C70.5584 142.368 75.7937 145.786 79.5231 151.514Z" fill="#C5900F"/>
</svg>
