<svg width="200" height="205" viewBox="0 0 200 205" fill="none" xmlns="http://www.w3.org/2000/svg">
<path d="M52.124 8.1406C53.8443 9.8444 55.6569 11.448 57.6729 12.7886C67.9563 19.6284 98.5529 36.086 147.08 29.36C207.712 20.9561 198.817 81.9188 190.092 98.1663C181.368 114.414 149.281 144.198 146.586 159.121C143.891 174.044 155.423 214.804 128.402 202.573C101.381 190.342 85.771 161.695 50.3037 165.025C14.8364 168.354 -10.2257 152.638 5.47432 124.558C21.1743 96.4778 39.945 78.3577 15.9865 47.0801C-7.30683 16.6723 31.9284 -11.8604 52.124 8.1406Z" fill="#DCFCE7"/>
<path d="M113.647 39.643C113.197 39.1902 112.94 38.5812 112.929 37.9433C112.918 37.3053 113.154 36.6877 113.588 36.2197L129.586 18.9521C129.813 18.7075 130.086 18.5113 130.391 18.3752C130.695 18.2391 131.024 18.166 131.357 18.1602C131.691 18.1544 132.022 18.2161 132.331 18.3416C132.64 18.467 132.92 18.6536 133.155 18.8902L134.536 20.281C134.771 20.5176 134.956 20.7993 135.079 21.1091C135.202 21.4189 135.261 21.7504 135.253 22.0837C135.245 22.4171 135.17 22.7453 135.032 23.0488C134.893 23.3522 134.695 23.6245 134.449 23.8494L117.07 39.7263C116.599 40.1567 115.98 40.3884 115.342 40.3729C114.704 40.3574 114.097 40.0958 113.647 39.643V39.643Z" fill="#34D399"/>
<path d="M103.521 33.7571C103.138 33.5875 102.836 33.2767 102.677 32.8896C102.519 32.5025 102.516 32.0691 102.669 31.6799L108.331 17.3208C108.411 17.1174 108.532 16.9323 108.685 16.7767C108.839 16.6211 109.022 16.4981 109.225 16.4152C109.427 16.3323 109.644 16.2911 109.862 16.2942C110.081 16.2973 110.297 16.3446 110.497 16.4332L111.671 16.954C111.871 17.0426 112.051 17.1707 112.2 17.3305C112.349 17.4904 112.465 17.6788 112.539 17.8844C112.614 18.09 112.646 18.3085 112.633 18.5268C112.621 18.7451 112.565 18.9586 112.468 19.1546L105.632 32.9929C105.447 33.3681 105.123 33.6572 104.73 33.7996C104.336 33.942 103.903 33.9267 103.521 33.7571Z" fill="#34D399"/>
<path d="M93.2179 36.104C91.9131 36.3389 90.6041 35.2193 90.2499 33.566L83.9706 4.21029C83.596 2.45595 84.4359 0.78743 85.8201 0.53795L87.749 0.190748C89.1331 -0.0584514 90.5031 1.21275 90.7631 2.98725L95.114 32.6901C95.359 34.3635 94.5227 35.869 93.2179 36.104Z" fill="#34D399"/>
<path d="M194.712 63.7307L167.018 60.1607C166.552 60.1109 166.081 60.2045 165.67 60.429C165.258 60.6534 164.924 60.998 164.714 61.4169L157.35 75.9572L126.524 137.608C126.196 138.259 125.647 138.772 124.976 139.055C124.304 139.338 123.553 139.373 122.858 139.152L39.188 112.445C38.9572 112.372 38.7123 112.354 38.4732 112.393C38.2342 112.433 38.008 112.528 37.8132 112.672C37.6184 112.816 37.4605 113.005 37.3526 113.221C37.2447 113.438 37.1899 113.678 37.1926 113.92L37.2309 117.395C37.2356 117.878 37.3926 118.347 37.6796 118.736C37.9665 119.124 38.3688 119.412 38.829 119.559L127.354 147.815C128.341 148.13 129.227 148.7 129.923 149.468C130.618 150.236 131.098 151.174 131.315 152.187L131.344 152.325C132.114 156.555 127.946 160.027 123.838 158.78L26.7673 127.756C26.2694 127.598 25.8405 127.274 25.5516 126.839C25.2626 126.404 25.131 125.883 25.1785 125.362L32.7754 42.4028C32.8136 41.9751 32.9414 41.5602 33.1503 41.185C33.3593 40.8098 33.6448 40.4828 33.9883 40.2251C34.3319 39.9675 34.7258 39.7849 35.1444 39.6894C35.5631 39.5938 35.9972 39.5874 36.4185 39.6705L152.708 62.4195L160.198 47.5341C160.414 47.1134 160.754 46.7692 161.172 46.548C161.59 46.3267 162.066 46.239 162.536 46.2968L196.449 50.6396C196.75 50.6774 197.04 50.7745 197.303 50.9253C197.566 51.076 197.797 51.2775 197.981 51.5179C198.166 51.7584 198.301 52.0331 198.379 52.3261C198.457 52.6192 198.476 52.9247 198.435 53.2251L197.278 61.755C197.198 62.3565 196.883 62.9018 196.402 63.2719C195.922 63.6421 195.314 63.807 194.712 63.7307V63.7307Z" fill="#6EE7B7"/>
<path d="M37.4647 98.2415L46.9405 101.266L56.03 55.1743L41.4829 52.9406L37.4647 98.2415Z" fill="#DCFCE7"/>
<path d="M111.813 121.972L121.289 124.997L145.794 73.3844L135.357 70.8561L111.813 121.972Z" fill="#DCFCE7"/>
<path d="M75.3676 110.34L84.1146 113.131L102.851 64.4966L88.5362 61.534L75.3676 110.34Z" fill="#DCFCE7"/>
<path d="M64.2806 57.0046L78.5951 59.9671L65.8919 107.315L56.4163 104.29L64.2806 57.0046Z" fill="#DCFCE7"/>
<path d="M126.377 68.7932L112.063 65.8305L94.3192 116.388L103.066 119.18L126.377 68.7932Z" fill="#DCFCE7"/>
<path d="M39.2933 157.708C45.4206 157.708 50.3877 152.741 50.3877 146.613C50.3877 140.486 45.4206 135.519 39.2933 135.519C33.166 135.519 28.1988 140.486 28.1988 146.613C28.1988 152.741 33.166 157.708 39.2933 157.708Z" fill="#A7F3D0"/>
<path d="M108.539 179.81C114.666 179.81 119.634 174.843 119.634 168.715C119.634 162.588 114.666 157.621 108.539 157.621C102.412 157.621 97.4447 162.588 97.4447 168.715C97.4447 174.843 102.412 179.81 108.539 179.81Z" fill="#A7F3D0"/>
<path d="M199.694 50.1806L170.466 46.5215C170.304 46.5012 170.156 46.6161 170.136 46.7782L168.365 60.9287C168.344 61.0907 168.459 61.2385 168.621 61.2588L197.849 64.9179C198.011 64.9382 198.159 64.8233 198.179 64.6613L199.95 50.5108C199.971 50.3487 199.856 50.2009 199.694 50.1806Z" fill="#A7F3D0"/>
</svg>
